<svg width="32" height="32" viewBox="0 0 32 32" xmlns="http://www.w3.org/2000/svg">
    <g fill="none" fill-rule="evenodd">
        <path d="M26 32H6a6 6 0 0 1-6-6V6a6 6 0 0 1 6-6h20a6 6 0 0 1 6 6v20a6 6 0 0 1-6 6z" fill="#E9E1FF" fill-rule="nonzero"/>
        <path d="M4 4h24v24H4z"/>
        <path d="M24 10h-4V8c0-1.11-.89-2-2-2h-4c-1.11 0-2 .89-2 2v2H8c-1.11 0-1.99.89-1.99 2L6 23c0 1.11.89 2 2 2h16c1.11 0 2-.89 2-2V12c0-1.11-.89-2-2-2zm-6 0h-4V8h4v2z" fill="#966DFE" fill-rule="nonzero"/>
    </g>
</svg>
