<svg width="32" height="32" viewBox="0 0 32 32" xmlns="http://www.w3.org/2000/svg">
    <g fill="none" fill-rule="evenodd">
        <path d="M26 32H6a6 6 0 0 1-6-6V6a6 6 0 0 1 6-6h20a6 6 0 0 1 6 6v20a6 6 0 0 1-6 6z" fill="#FEE1EB" fill-rule="nonzero"/>
        <path d="M4 4h24v24H4z"/>
        <path d="M8 7h6c.55 0 1 .45 1 1v6c0 .55-.45 1-1 1H8c-.55 0-1-.45-1-1V8c0-.55.45-1 1-1zm10 0h6c.55 0 1 .45 1 1v6c0 .55-.45 1-1 1h-6c-.55 0-1-.45-1-1V8c0-.55.45-1 1-1zM8 17h6c.55 0 1 .45 1 1v6c0 .55-.45 1-1 1H8c-.55 0-1-.45-1-1v-6c0-.55.45-1 1-1zm13 0c-.55 0-1 .45-1 1v2h-2c-.55 0-1 .45-1 1s.45 1 1 1h2v2c0 .55.45 1 1 1s1-.45 1-1v-2h2c.55 0 1-.45 1-1s-.45-1-1-1h-2v-2c0-.55-.45-1-1-1z" fill="#FA6D9C" fill-rule="nonzero"/>
    </g>
</svg>
