<svg width="32" height="32" viewBox="0 0 32 32" xmlns="http://www.w3.org/2000/svg">
    <g fill="none" fill-rule="evenodd">
        <path d="M26 32H6a6 6 0 0 1-6-6V6a6 6 0 0 1 6-6h20a6 6 0 0 1 6 6v20a6 6 0 0 1-6 6z" fill="#D0FBE3" fill-rule="nonzero"/>
        <path d="M4 4h24v24H4z"/>
        <path d="M24.75 10.99c-.14-.55-.69-.87-1.24-.75-2.38.53-5.03.76-7.51.76-2.48 0-5.13-.23-7.51-.76-.55-.12-1.1.2-1.24.75-.14.56.2 1.13.75 1.26 1.61.36 3.35.61 5 .75v12c0 .55.45 1 1 1s1-.45 1-1v-5h2v5c0 .55.45 1 1 1s1-.45 1-1V13c1.65-.14 3.39-.39 4.99-.75.56-.13.9-.7.76-1.26zM16 10c1.1 0 2-.9 2-2s-.9-2-2-2-2 .9-2 2 .9 2 2 2z" fill="#13CD65" fill-rule="nonzero"/>
    </g>
</svg>
