<svg width="32" height="32" viewBox="0 0 32 32" xmlns="http://www.w3.org/2000/svg">
    <g fill="none" fill-rule="evenodd">
        <path d="M6 0h20a6 6 0 0 1 6 6v20a6 6 0 0 1-6 6H6a6 6 0 0 1-6-6V6a6 6 0 0 1 6-6z" fill="#D0FBE3" fill-rule="nonzero"/>
        <path d="M4 4h24v24H4z"/>
        <path d="M4 4h24v24H4z"/>
        <path d="M9 17.18v2.81c0 .73.4 1.41 1.04 1.76l5 2.73c.6.33 1.32.33 1.92 0l5-2.73c.64-.35 1.04-1.03 1.04-1.76v-2.81l-6.04 3.3c-.6.33-1.32.33-1.92 0L9 17.18zm6.04-9.66-8.43 4.6c-.69.38-.69 1.38 0 1.76l8.43 4.6c.6.33 1.32.33 1.92 0L25 14.09V20c0 .55.45 1 1 1s1-.45 1-1v-6.41c0-.37-.2-.7-.52-.88l-9.52-5.19a2.04 2.04 0 0 0-1.92 0z" fill="#13CD65" fill-rule="nonzero"/>
    </g>
</svg>
