<svg width="97" height="80" viewBox="0 0 97 80" xmlns="http://www.w3.org/2000/svg" xmlns:xlink="http://www.w3.org/1999/xlink">
    <defs>
        <path id="a" d="M0 .588h96.511v73.31H0z"/>
        <path id="c" d="M.243.148h7.699V4H.243z"/>
        <path d="m.786 1.532.543 2.334c.038.461 1.129.48 1.91.103 1.03-.498 1.363-.905 1.46-1.062.025-.04.03-.09.019-.136L4.102.513" id="e"/>
        <path d="M1 3.174c.786 1.059 2.122.477 2.122.477s.218.754 1.13 1.26c.912.506 1.88.225 1.88.225s-.49.829-.186 1.966c.303 1.138.756 1.584.756 1.584s-.385.514.004.944c.436.484 1.999.545 2.548-.61.55-1.154 1.768-4.231.093-6.002C7.082.623.833.318.833.318s-.62 1.799.166 2.856" id="g"/>
        <path d="M8.314.576s-.419 1.416-1.632 1.808c-.742.24-.996-.358-1.765-.8-.485-.28-1.247-.471-2.361-.523C1.128.994.791.833.598.902c-.304.11-.748 1.625-.173 3.052.246.614 1.24 1.682 3.304 1.999 2.064.317 3.76-.348 4.384-1.313.733-1.134-.027-1.083.777-2.776.115-.24.242-.916.13-1.21C8.94.444 8.783.35 8.634.35c-.138 0-.27.081-.32.225" id="i"/>
        <path d="m.59 1.358.608 2.665c.087.496 1.236.36 1.907-.041 1.137-.68 1.239-1.205 1.239-1.205L3.504.282" id="k"/>
    </defs>
    <g fill="none" fill-rule="evenodd">
        <g transform="translate(0 .212)">
            <mask id="b" fill="#fff">
                <use xlink:href="#a"/>
            </mask>
            <path d="M90.523 73.898H9.143c0-.095-.004-.19-.01-.285-.138-2.179-1.686-3.952-3.32-5.264-1.634-1.315-3.48-2.413-4.71-4.159-1.23-1.745-1.618-4.444-.19-6.006 1.82-1.988 5.358-1.035 7.098-3.102 1.043-1.237 1.02-3.157.49-4.721-.91-2.68-3-4.658-4.776-6.785C1.949 41.448.354 38.743.799 35.933c.675-4.248 5.477-6.135 9.515-6.15 1.871-.006 4.003.106 5.307-1.325 1.309-1.437 1.129-3.799.436-5.663-.693-1.863-1.806-3.571-2.143-5.543-.088-.515-.1-1.108.234-1.49.201-.229.492-.338.775-.419 3.332-.954 6.732.874 9.87 2.402 3.138 1.526 6.97 2.75 9.88.775 4.225-2.864 3.243-9.923 6.182-14.247C43.273.714 48.163-.26 52.005 1.321c3.845 1.583 6.674 5.256 8.315 9.288.768 1.884 1.339 3.915 2.58 5.486 1.242 1.571 3.437 2.547 5.127 1.562 1.025-.597 1.93-1.87 3.059-1.545.729.208 1.142 1.03 1.333 1.809 1.07 4.37-2.23 9.116-.734 13.341.886 2.504 3.354 4.11 5.851 4.36 2.496.25 4.988-.671 7.155-2.015 2.05-1.271 4.248-3.004 6.545-2.374 1.407.385 2.49 1.623 3.175 2.99 2.579 5.154.199 11.688-3.508 15.986-1.31 1.52-2.804 2.924-3.652 4.779-.848 1.856-.843 4.37.626 5.713 1.226 1.119 3.002 1.084 4.608 1.237 1.606.152 3.462.803 3.924 2.452.303 1.083-.117 2.24-.634 3.226-.65 1.243-2.755 3.698-5.252 6.282" fill="#B1BAFF" opacity=".366" mask="url(#b)"/>
        </g>
        <path d="M27.15 74.11a6.016 6.016 0 0 1-.034-1.212c.044-.55.225-1.17.728-1.398.404-.182.886-.042 1.261.194.193.12.367.268.523.434a8.288 8.288 0 0 1-.518-4.796c.066-.338.183-.712.49-.87.4-.202.872.07 1.204.37a5.933 5.933 0 0 1 1.641 2.538 9.971 9.971 0 0 1 .11-2.694c.102-.566.28-1.166.736-1.516.517-.398 1.282-.354 1.843-.02.56.334.94.906 1.2 1.506.358.828.509 1.74.453 2.64.044-.084.09-.164.144-.244.421-.635 1.262-1.059 1.965-.764.752.316 1.001 1.237 1.157 2.037-.056-.845.1-1.704.452-2.474.1-.216.218-.431.403-.58.541-.43 1.408-.062 1.728.552.264.51.256 1.105.186 1.684.155-.99.506-1.944.945-2.847.359-.735.794-1.46 1.45-1.95.656-.487 1.578-.69 2.307-.318.708.361 1.08 1.167 1.232 1.948.372 1.899-.316 3.97-1.748 5.27.848-.483 1.741-.98 2.718-1.009.491-.015 1.127.098 1.282.565.218.656-.164 1.833-.74 2.954H27.15z" fill="#E790BD"/>
        <path d="M45.049 74.11h25.485c.534-.83 1.094-1.78 1.202-2.083.245-.682.08-1.549-.524-1.948a1.36 1.36 0 0 0-.663-.215 1.56 1.56 0 0 0-.212-.002c-.371.022-.75.161-1.056.376-.563.392-.943.99-1.308 1.57.17-.864.26-1.744.262-2.624.003-.682-.05-1.38-.323-2.005a2.504 2.504 0 0 0-.69-.927 1.829 1.829 0 0 0-.779-.389c-.792-.172-1.629.264-2.102.923a2.996 2.996 0 0 0-.393.77 8.658 8.658 0 0 0-.438-3.36c-.507-1.48-1.512-2.888-2.984-3.42-.285-.103-.592-.174-.892-.125-.772.123-1.213.943-1.427 1.694-.674 2.366-.251 4.889.177 7.313a4.45 4.45 0 0 0-.962-1.792c-.532-.601-1.332-1.073-2.112-.888-.692.163-1.186.81-1.374 1.497-.188.686-.126 1.414-.06 2.12-.484-.978-.991-1.99-1.842-2.674-.853-.686-2.15-.943-3.034-.3-.577.42-.87 1.145-.932 1.857a2.713 2.713 0 0 0-.009.14c-.035.664.098 1.33.229 1.983-.3-.54-.617-1.095-1.094-1.482a1.889 1.889 0 0 0-.112-.089c-.542-.388-1.343-.501-1.856-.077a.99.99 0 0 0-.094.088c-.326.335-.44.834-.5 1.305-.117.94-.069 1.984.417 2.764" fill="#E7638B"/>
        <path d="M87.798 73.501c-.016.225-.04.427-.072.61H65.743c-.837-.606-1.436-1.47-1.638-2.696-.084-.5-.037-1.082.343-1.417.403-.355 1.026-.3 1.526-.103l.065.028c.29.121.559.279.807.467.744.56 1.314 1.371 1.787 2.191-.105-.631-.208-1.288-.023-1.9.037-.126.092-.249.158-.363.262-.448.724-.784 1.23-.735.334.032.633.223.888.442.56.482.973 1.13 1.177 1.84-.426-1.532-.777-3.12-.613-4.702.164-1.58.916-3.172 2.274-4 .245-.148.507-.273.783-.345 1.023-.27 2.148.197 2.838.997s.993 1.878 1.036 2.934a8.9 8.9 0 0 1-.006.76c.22-.793.543-1.557.963-2.262.359-.604.936-1.234 1.63-1.124.495.079.85.518 1.086.961.908 1.696.752 3.74.574 5.656a5.087 5.087 0 0 1 1.014-2.058c.14-.17.301-.339.512-.402.288-.082.605.06.8.288.196.227.288.524.35.816.109.524.13 1.067.065 1.599.179-.181.389-.33.622-.433.387-.171.847-.224 1.225-.036.566.279.771.975.854 1.6.065.484-.237.9-.272 1.387" fill="#E790BD"/>
        <path d="M9.764 74.11h25.268c.323-.728.35-1.593.007-2.316-.547-1.15-1.97-1.802-3.2-1.467-.574.158-1.08.497-1.575.83a5.726 5.726 0 0 0-.202-1.98c-.107-.375-.268-.76-.587-.984-.292-.207-.673-.244-1.028-.206-1.084.115-2.061.929-2.373 1.974.18-.748.363-1.513.288-2.28-.074-.766-.454-1.547-1.14-1.896-.728-.373-1.662-.167-2.288.361-.626.528-.976 1.323-1.132 2.126.093-1.256-.174-2.558-.875-3.606-.7-1.047-1.855-1.81-3.111-1.914-1.255-.104-2.575.51-3.2 1.606-.848 1.488-.303 3.35.258 4.97a7.797 7.797 0 0 0-2.064-.342c-.396-.01-.816.016-1.136.248-.362.263-.514.741-.496 1.188.018.445.18.872.341 1.288a2.36 2.36 0 0 0-2.09-1.29c-.256.003-.527.054-.716.226-.268.242-.304.648-.27 1.008.095.95.594 1.84 1.32 2.456" fill="#E7638B"/>
        <path d="M48.173 61.814s-16.177 1.912-17.814.416c-1.639-1.495.672-12.704.79-13.208.05-.21.03-.346-.026-.43a.26.26 0 0 0-.163-.11.47.47 0 0 0-.192-.001c-.363.062-1.957 2.868-3.64 5.7-1.497 2.518-3.068 4.842-3.217 5.681-.316 1.784 1.27 17.102 1.27 17.102l-1.172-.289-.094-.021-2.56-.628s-3.875-14.395-3.5-17.354c.374-2.957 8.336-15.697 8.336-15.697l1.908-4.58 10.69 2.016.106.02 1.77.335s.262 3.056-.763 6.607c-.944 3.264-4.625 10.446-4.119 10.85.507.403 12.702-.136 12.702-.136l-.034.417-.012.116-.266 3.194z" fill="#6A4075"/>
        <path d="M38.317 43.439c-.123 1.565-.255 3.133-.513 4.683a21.225 21.225 0 0 1-1.089 4.1c-.528 1.378-1.08 2.747-1.601 4.128a20.96 20.96 0 0 1-.601 1.415c-.066.142-.133.285-.175.435-.01.038-.036.155-.036.147a.377.377 0 0 0 .008.139c.018.055.078.117.19.175.187.098.406.14.614.177.69.12 1.405.15 2.104.166 1.417.032 2.833-.065 4.244-.196 1.424-.131 2.848-.26 4.276-.369.912-.07 1.824-.14 2.736-.216l.01-.136s-12.194.538-12.7.136c-.506-.404 3.174-7.586 4.118-10.85 1.026-3.551.764-6.607.764-6.607l-1.772-.334-.105-.02-.201-.038c-.095 1.02-.191 2.041-.271 3.065" fill="#6A4075"/>
        <path d="M48.44 58.62c-2.575.156-5.151.29-7.73.405a259.85 259.85 0 0 1-5.916.206c-.24.006-.521.002-.704-.174-.116-.112-.182-.276-.147-.425.01-.04.028-.081.052-.119-.021-.01-.039-.03-.03-.057.526-1.558 1.124-3.092 1.662-4.646.862-2.486 1.648-5.005 2.233-7.572a.034.034 0 0 1-.029-.006c-.373-.26-.688-.607-.952-.973a4.888 4.888 0 0 1-.865-3.722c.074-.441.201-.92.435-1.308.036-.059.144-.025.118.045-.092.24-.194.471-.268.717a4.758 4.758 0 0 0 .76 4.29c.241.322.526.593.823.864a40.41 40.41 0 0 0 .907-5.734l.106.022c-.034.448-.078.897-.13 1.346-.326 2.846-.989 5.64-1.812 8.383a100.024 100.024 0 0 1-1.373 4.18c-.485 1.39-.97 2.785-1.516 4.151 0 .004-.005.005-.008.007.02.01.029.033.015.055-.086.148-.019.33.104.436.137.116.333.134.506.135.347.004.696-.02 1.043-.033.707-.025 1.412-.052 2.118-.078a497.31 497.31 0 0 0 7.557-.338c1.017-.053 2.035-.112 3.052-.173l-.012.116zM31.281 48.702a6.087 6.087 0 0 0-.32-.22 6.14 6.14 0 0 0-.996-.515l-.103-.036a5794.586 5794.586 0 0 0-4.196 5.874c-.614.86-1.238 1.713-1.838 2.58-.572.833-1.116 1.706-1.415 2.678-.305.995-.28 2.03-.186 3.054.093 1.046.21 2.094.322 3.136a299.545 299.545 0 0 0 1.182 9.476c.09.65.189 1.298.278 1.946l-.094-.022c-.3-1.951-.57-3.906-.819-5.866-.27-2.116-.517-4.239-.74-6.361-.11-1.044-.25-2.091-.29-3.141-.04-1 .09-1.966.483-2.891.4-.94.989-1.787 1.58-2.616.628-.883 1.257-1.763 1.886-2.643l3.741-5.244a6.42 6.42 0 0 0-.548-.172c-.241-.058-.487-.088-.73-.139-.05-.01-.043-.093.009-.093.257.007.519.07.769.132.2.052.397.116.592.19a.087.087 0 0 1 .036.012c.03.014.062.023.092.034.484.198.939.463 1.347.79.033.025-.01.082-.042.057M31.685 42.328c-.162.27-.28.575-.398.866-.113.278-.22.558-.319.842-.101.292-.196.588-.282.886-.083.284-.128.628-.315.866-.162.208-.504.344-.697.098-.193-.246-.076-.576.019-.838.218-.596.44-1.19.658-1.787l.742-2.014c.02-.058-.073-.08-.094-.022l-.739 1.99c-.123.331-.245.663-.37.995-.121.329-.255.654-.363.988-.08.247-.117.535.048.758.142.193.39.228.602.138.245-.105.378-.346.462-.586.108-.31.182-.633.282-.946.122-.382.257-.758.406-1.13.142-.359.317-.708.448-1.07.02-.053-.064-.08-.09-.034" fill="#000"/>
        <path d="M47.947 62.126s.76 3.938 1.552 2.81c.791-1.13 1.468-6.733 1.155-6.928-.313-.196-2.62-.507-2.62-.507l-.915 4.636.828-.011z" fill="#000"/>
        <path d="M48.493 60.93c-.117.034-.22.14-.3.228a1.457 1.457 0 0 0-.395 1.03c0 .068.114.082.122.012a1.579 1.579 0 0 1 .545-.993c.044-.036.095-.068.13-.113.06-.075 0-.194-.102-.165M48.624 61.615c-.092.03-.16.105-.223.175-.062.07-.12.142-.174.217-.099.139-.21.312-.22.487-.005.061.08.084.119.044.058-.06.099-.136.144-.207a2.48 2.48 0 0 1 .297-.382c.06-.063.132-.116.171-.194.036-.073-.03-.168-.114-.14M49.021 62.333c-.116-.018-.225.08-.31.148a2.237 2.237 0 0 0-.455.482c-.067.094-.113.19-.154.298-.027.073.086.129.132.072.129-.157.255-.317.401-.46.068-.066.137-.13.212-.189.084-.065.215-.127.246-.234.015-.048-.022-.109-.072-.117" fill="#876DE8"/>
        <g transform="translate(17.6 75.412)">
            <mask id="d" fill="#fff">
                <use xlink:href="#c"/>
            </mask>
            <path d="M3.333.974s-3.98.498-2.906 1.362c1.074.865 6.62 1.912 6.836 1.612.215-.3.679-2.58.679-2.58L3.377.148l-.044.826z" fill="#000" mask="url(#d)"/>
        </g>
        <path d="M20.62 77.275c-.039-.063-.106-.097-.162-.142a1.108 1.108 0 0 0-.172-.111 3.256 3.256 0 0 0-.416-.182 3.164 3.164 0 0 0-.42-.124 1.723 1.723 0 0 0-.212-.035c-.065-.007-.139-.025-.197.016-.02.015-.034.048-.016.071.04.053.093.06.155.077l.211.06c.132.037.262.078.39.128s.25.108.372.17c.062.03.12.062.184.09.068.026.133.077.207.087.058.009.11-.05.076-.105M21.52 77.46c-.052-.15-.163-.267-.274-.375a3.02 3.02 0 0 0-1.256-.736c-.078-.024-.129.105-.052.135a3.475 3.475 0 0 1 1.151.745c.109.107.206.227.335.31.049.031.113-.026.095-.079M22.499 77.18c-.021-.078-.084-.13-.139-.184a2.296 2.296 0 0 0-.18-.16 2.99 2.99 0 0 0-.415-.278 2.487 2.487 0 0 0-.922-.316c-.098-.012-.13.118-.035.15.292.097.582.208.848.366.13.077.256.163.373.257.059.047.118.095.175.146.06.053.108.11.186.135.069.022.126-.054.109-.117" fill="#876DE8"/>
        <path d="M32.78 23.303c-.487-.848-1.95-1.503-5.148-.045-1.754.8-6.344 2.803-7.438 2.762-1.582-.058-7.9-2.81-9.278-3.604l-1.347 1.735s7.583 6.082 10.733 6.116c3.034.034 6.5-1.356 9.16-2.792 2.16-1.168 4.138-2.742 3.318-4.172" fill="#FF9F7C"/>
        <path d="M32.78 23.303c-.487-.848-1.95-1.503-5.148-.045-.744.339-1.996.894-3.276 1.419.184.418.373.834.562 1.25.256.564.475 1.144.742 1.702.204.43.455.866.677 1.312a30.01 30.01 0 0 0 3.124-1.466c2.162-1.168 4.14-2.742 3.319-4.172" fill="#D53140"/>
        <path d="M28.078 29.348a.536.536 0 0 1-.07.038c-.364.203-.59.316-.59.316l-3.472-5.735s.332-.212.875-.513c.032-.019.066-.036.101-.056 2.008-1.1 6.56-3.208 8.286-.82 1.846 2.552-3.258 5.724-5.13 6.77" fill="#876DE8"/>
        <path d="M33.208 22.578a2.507 2.507 0 0 0-.298-.34 13.089 13.089 0 0 0-3.404 2.182c-.663.59-1.243 1.25-1.828 1.916-.443.506-.898 1.018-1.44 1.418l1.18 1.948s.226-.113.59-.316a.593.593 0 0 0 .07-.038c1.872-1.046 6.976-4.218 5.13-6.77" fill="#876DE8"/>
        <path d="M28.078 29.348c-.006.03-.043.052-.07.038a.043.043 0 0 1-.017-.019c-.128-.234-.224-.49-.33-.735-.107-.25-.22-.498-.335-.744a34.451 34.451 0 0 0-2.505-4.434c.032-.019.066-.036.101-.056.19.275.372.555.553.836a31.459 31.459 0 0 1 2.054 3.784c.097.212.191.424.285.639.095.218.198.441.262.673a.038.038 0 0 1 .002.018" fill="#000"/>
        <path d="M8.673 23.827c-.798-.46-1.87-1.231-2.466-1.628-.63-.42-.604-.661.004-.502.54.142 1.006.393 1.068.31.032-.04-.337-.249-.855-.554-.531-.313-.891-.574-.8-.813.09-.239 1.577.468 1.961.716.385.248-1.003-.875-1.482-1.252-.536-.424-.316-.742.456-.323.775.421 1.377.913 1.606.97-.083-.183-.238-.368-.92-1.024-.506-.486-.257-.704.353-.334.733.445 1.563 1.417 1.818 1.307.137-.163-.096-.397-.19-1.148-.093-.747.459.037.812.72.365.708.946 1.394 1.221 1.988.37.803.123 1.544-.184 1.796-.305.252-.742.725-2.402-.23" fill="#FF9F7C"/>
        <path d="M9.44 21.559a.165.165 0 0 0-.012.076c0 .032-.003.061.002.093a3.5 3.5 0 0 0 .155.5c.042.107.087.213.138.314.052.102.106.22.185.302.054.058.138.004.115-.07-.031-.106-.092-.205-.137-.305-.047-.105-.094-.209-.135-.316a5.682 5.682 0 0 1-.108-.317 3.686 3.686 0 0 0-.051-.159c-.009-.026-.026-.047-.037-.073a.162.162 0 0 0-.048-.064c-.023-.02-.056-.006-.067.019" fill="#D53140"/>
        <path d="M43.41 43.207c-.933.46-6.738 1.45-9.962 1.367-3.224-.083-8.117-.587-8.013-1.13a4.164 4.164 0 0 1 .115-.471c.438-1.523 1.575-3.679 1.718-6.33.137-2.549-.188-5.405-.332-7.739a25.837 25.837 0 0 1-.06-2.225c.016-.53.063-.993.158-1.374.526-2.1 1.618-3.247 2.935-3.768 1.038-.413 2.21-.437 3.357-.233 2.605.464 5.227 1.331 6.282 2.885 1.526 2.248 3.236 14.673 3.69 18.128.002.04.007.075.013.113.065.496.1.777.1.777" fill="#00075C"/>
        <path d="M30.555 23.261c-.098.192-.168.43.01.617.09.095.217.158.346.2.559.194 1.202.103 1.727-.08.767-.267 1.585-.778 2.066-1.375.119-.147.234-.34.162-.533-.066-.178-.27-.287-.465-.354-1.494-.51-3.238.32-3.846 1.525" fill="#876DE8"/>
        <path d="M43.31 42.43a43.097 43.097 0 0 1-5.274.97 43.099 43.099 0 0 1-9.76.061 41.11 41.11 0 0 1-2.752-.393c.007-.032.016-.064.026-.095a43.185 43.185 0 0 0 13.052.24 42.574 42.574 0 0 0 4.695-.897c.003.04.008.076.014.114" fill="#000"/>
        <path d="M30.929 23.278c.038.461 1.128.48 1.91.103 1.03-.497 1.363-.905 1.46-1.062.025-.04.03-.09.018-.136l-.615-2.257-3.316 1.018.543 2.334z" fill="#FF9F7C"/>
        <g transform="translate(29.6 19.412)">
            <mask id="f" fill="#fff">
                <use xlink:href="#e"/>
            </mask>
            <path d="M3.048 2.06a2.935 2.935 0 0 1-1.502.551c-.33.028-.679.001-.967-.19C.054 2.072-.102 1.245.126.634c.23-.61.754-1.021 1.31-1.25.47-.193.977-.276 1.482-.25.352.02 1.064.043 1.267.446.397.793-.626 2.1-1.137 2.48" fill="#D53140" mask="url(#f)"/>
        </g>
        <g>
            <path d="M17.901 30.755c-.536-.398-1.39-.727-2.063-1.183-.649-.44-1.527-.871-1.078-.248.45.625.773.72.73.934-.174.223-1.391-.242-2.264-.283-.727-.034-.843.284-.154.472.931.254 1.16.343 1.324.467-.233.06-1.012-.086-1.91-.084-.895.002-.937.395-.251.51.612.105 2.402.433 1.937.398-.465-.033-2.14.06-2.105.317.036.258.486.316 1.114.337.612.02 1.043.026 1.036.078-.016.104-.556.107-1.108.244-.622.155-.527.384.242.451a60.73 60.73 0 0 1 2.924.338c1.884.272 2.325-.258 2.537-.98.211-.72-.188-1.232-.911-1.768" fill="#FF9F7C"/>
            <path d="M39.201 24.003c-.766-.606-2.368-.67-4.797 1.87-1.332 1.394-4.85 4.957-5.881 5.325-1.492.533-9.356-.155-10.93-.381l-.59 2.495S27.26 36.238 30.2 35.101c2.83-1.094 5.533-3.671 7.468-5.991 1.574-1.887 2.828-4.083 1.534-5.107" fill="#FF9F7C"/>
            <path d="M39.201 24.003c-.766-.606-2.368-.67-4.797 1.87a97.684 97.684 0 0 1-2.597 2.611c.832.66 1.577 1.41 2.327 2.164.351.353.725.707 1.071 1.083a29.64 29.64 0 0 0 2.462-2.621c1.574-1.887 2.828-4.083 1.534-5.107" fill="#D53140"/>
            <path d="m37.288 31.069-.059.078c-.374.49-.632.79-.632.79L31.245 27.9s.248-.365.672-.892l.045-.056c1.36-1.676 4.392-4.853 6.823-3.316 2.492 1.578-.15 5.644-1.497 7.433" fill="#876DE8"/>
            <path d="M38.073 29.087c-.457.45-.89.927-1.377 1.346-.336.287-.722.57-1.149.712l1.05.792s.259-.3.632-.79l.059-.078c.648-.86 1.593-2.246 2.125-3.63a9.862 9.862 0 0 1-1.34 1.648" fill="#876DE8"/>
            <path d="m37.288 31.069-.059.078a28.586 28.586 0 0 0-5.312-4.139l.045-.056c.446.262.88.535 1.308.822a27.878 27.878 0 0 1 4.018 3.295" fill="#000"/>
            <path d="M29.375 10.004c-.797.203-1.44 1.327-1.532 2.158-.09.832.123 1.222.575 1.385.452.164 2.437-3.918.957-3.543" fill="#681E04"/>
            <path d="M27.454 14.717c-.12.485-.228.96-.306 1.416-.01.048-.017.096-.025.144-.188 1.179-.166 2.232.364 3.052.025.038.05.076.079.115.47.65 1.286 1.138 2.605 1.406.09.02.181.036.276.051l.127.022c1.617.254 3.203-.378 4.341-1.577.17-.177.33-.369.478-.572.522-.711.9-1.564 1.08-2.511.57-2.995-1.102-5.774-3.734-6.233-2.634-.461-4.45 1.327-5.285 4.687" fill="#FF9F7C"/>
            <path d="M34.705 17.043c.436.483 2 .544 2.548-.61.55-1.154 1.77-4.232.094-6.003-2.266-2.396-8.514-2.7-8.514-2.7s-.62 1.799.167 2.857c.786 1.058 2.122.476 2.122.476s.219.755 1.13 1.26c.912.505 1.88.225 1.88.225s-.49.83-.187 1.966c.304 1.138.757 1.584.757 1.584s-.385.514.003.945" fill="#681E04"/>
        </g>
        <g transform="translate(28 7.412)">
            <mask id="h" fill="#fff">
                <use xlink:href="#g"/>
            </mask>
            <path d="M9.281 6.914a6.13 6.13 0 0 0-.646-4.003c.797.838 1.257 1.968 1.404 3.105.147 1.139-.002 2.286-.292 3.375-.086.32-.191.65-.42.881-.555.561-2.115.283-1.386-.636.646-.812 1.143-1.667 1.34-2.722" fill="#681E04" mask="url(#h)"/>
        </g>
        <g>
            <path d="M34.681 18.163c.017.54.712.929 1.44.653.729-.274 1.549-1.497 1.31-2.356-.239-.859-1.395-.835-2.047-.077-.492.572-.716 1.359-.703 1.78" fill="#FFC9C9"/>
            <path d="M34.681 18.163c.017.54.712.929 1.44.653.729-.274 1.549-1.497 1.31-2.356-.239-.859-1.395-.835-2.047-.077-.492.572-.716 1.359-.703 1.78" fill="#FFC9C9"/>
            <path d="M34.681 18.163c.017.54.712.929 1.44.653.729-.274 1.549-1.497 1.31-2.356-.239-.859-1.395-.835-2.047-.077-.492.572-.716 1.359-.703 1.78" fill="#FF9F7C"/>
            <path d="M36.893 16.734c.031-.018.033-.069.003-.087-.131-.079-.318-.027-.458.017a1.55 1.55 0 0 0-.442.22 1.544 1.544 0 0 0-.593.833c-.016.064.07.108.101.045.144-.284.327-.543.583-.721.035-.024.072-.043.107-.064l.024.054.04.094c.026.064.045.131.062.2.033.138.035.285.078.42.01.025.048.04.061.008.067-.151.046-.32.01-.472a1.431 1.431 0 0 0-.129-.326l-.028-.041c.054-.026.109-.05.166-.067.134-.043.292-.039.415-.113" fill="#FF4640"/>
            <path d="M34.714 15.988s-.419 1.417-1.632 1.809c-.742.24-.997-.359-1.765-.8-.486-.28-1.247-.472-2.361-.524-1.428-.067-1.765-.228-1.958-.158-.303.11-.748 1.624-.173 3.052.246.613 1.24 1.68 3.304 1.998 2.064.317 3.76-.348 4.384-1.312.733-1.135-.027-1.084.777-2.777.115-.24.242-.915.13-1.21-.154-.405-.6-.375-.706-.078" fill="#681E04"/>
        </g>
        <g transform="translate(26.4 15.412)">
            <mask id="j" fill="#fff">
                <use xlink:href="#i"/>
            </mask>
            <path d="M5.267 5.703c.513-.156 1.007-.4 1.389-.776.23-.229.416-.502.592-.777.536-.842 1.004-1.755 1.754-2.401a7.739 7.739 0 0 0-.058 1.54c.021.335.063.674.006 1.001-.082.47-.365.878-.72 1.18-.354.301-.778.508-1.208.69-.592.252-1.21.464-1.855.526-.934.092-1.881-.132-2.8-.383-.227-.062-.458-.128-.66-.255-.17-.107-.802-.823-.325-.703.42.105.817.347 1.252.443a5.21 5.21 0 0 0 2.633-.085" fill="#681E04" mask="url(#j)"/>
        </g>
        <g>
            <path d="M31.059 15.885c.051-.1.118-.194.2-.27a.712.712 0 0 1 .598-.191c.433.063.76.513.742.952-.003.073-.097.089-.12.022-.063-.173-.11-.343-.22-.493a.658.658 0 0 0-.431-.274.494.494 0 0 0-.447.167c-.06.067-.107.143-.149.223-.037.073-.072.188-.143.232-.048.028-.1.004-.118-.046-.035-.091.045-.24.088-.322M29.159 15.422a1.1 1.1 0 0 0-.053-.295.584.584 0 0 0-.347-.378c-.312-.108-.669.14-.79.507-.02.06.039.108.075.062.094-.118.178-.24.296-.323a.414.414 0 0 1 .376-.066c.122.042.21.154.25.303.022.076.03.157.034.238.003.073-.008.18.026.242.024.042.067.04.094.007.052-.062.043-.214.039-.297" fill="#000"/>
            <path d="M30.888 17.228c-.259-.247-.719-.033-1.443-.086-.724-.054-1.136-.295-1.265-.165-.3.3.237 1.234 1.245 1.356 1.15.14 1.732-.848 1.463-1.105" fill="#FFF"/>
            <path d="M32.917 14.069c-.048-.096-.09-.19-.154-.276a2.638 2.638 0 0 0-.193-.228 1.55 1.55 0 0 0-.441-.34c-.3-.143-.731-.207-1.031.034-.13.104-.09.315.04.338.1.055.254.045.361.055.28.03.571.095.834.215.139.064.272.144.393.24.038.03.09.104.143.09.046-.013.068-.088.048-.128M28.164 13.155c.073-.072.142-.143.221-.2.077-.054.152-.1.23-.144.149-.08.303-.142.454-.158.273-.03.608.06.725.387.05.14-.064.32-.166.297-.094.016-.2-.048-.28-.074a1.73 1.73 0 0 0-.684-.091c-.126.01-.253.037-.379.084-.039.015-.106.064-.138.033-.029-.028-.013-.104.017-.134" fill="#681E04"/>
            <path d="M29.457 15.657a.85.85 0 0 0-.216-.039.61.61 0 0 0-.476.185.495.495 0 0 0-.13.451c.011.044.076.03.076-.014 0-.301.31-.49.587-.443.15.026.286.101.402.199.059.05.116.1.17.156.052.055.093.124.157.166.023.016.06-.007.057-.035-.012-.087-.075-.175-.125-.245a1.055 1.055 0 0 0-.197-.22.928.928 0 0 0-.187-.114c.114-.159.186-.347.228-.536a1.47 1.47 0 0 0 .04-.338.88.88 0 0 0-.063-.332c-.023-.046-.101-.031-.108.017-.015.098-.004.2-.012.3" fill="#D53140"/>
            <path d="m49.758 76.299 2.5 1.473c4.23-5.721 8.732-12.778 9.157-15.318C61.842 59.916 65.8 51 65.8 51s4.147 10.087 5.844 10.563c1.701.48 16.473-7.968 16.473-7.968l-1.413-2.388-11.93 3.84s-.758-6.608-2.26-11.075c-.878-2.606-3.352-5-4.474-5.986-.03-.025-.058-.05-.085-.075-.299-.259-.48-.4-.48-.4l-.98.536-.124.036-.256.08-.168.053-6.46 2.04a71.638 71.638 0 0 0-.16.927c-.29 1.722-.905 5.478-1.33 8.424-.778 5.43-.549 7.15-1.234 9.876C54.965 66.63 49.758 76.3 49.758 76.3" fill="#00259A"/>
            <path d="M57.483 61.049c-.433 1.078-.85 2.161-1.267 3.246-1.014 2.632-1.994 5.306-3.3 7.812-.594 1.142-1.34 2.195-2.066 3.256-.257.374-.51.752-.756 1.135l-.336-.2s5.208-9.668 7.004-16.813c.685-2.726.456-4.447 1.236-9.877a396.154 396.154 0 0 1 1.328-8.423c.01-.058.02-.115.028-.17.073-.429.12-.7.132-.757l.822-.259c-.04.938-.093 1.876-.202 2.81-.18 1.56-.632 3.07-.848 4.625-.19 1.375-.296 2.759-.37 4.144-.072 1.375-.091 2.754-.223 4.125-.131 1.35-.368 2.691-.762 3.99-.137.453-.278.905-.42 1.356" fill="#00259A"/>
            <path d="M53.756 74.092c.015.01.031.019.046.03l.083.05a129.513 129.513 0 0 0 1.974-3.272 69.965 69.965 0 0 0 2.864-5.407 51.212 51.212 0 0 0 2.232-5.615c.638-1.915 1.202-3.849 1.814-5.762.307-.952.623-1.9.963-2.839.331-.908.7-1.798 1.089-2.684.372.718.621 1.62.968 2.373.016.033.022-.031.008-.062-.308-.777-.552-1.82-1.018-2.594-.37-.62-1.055-1.266-1.871-1.207-.059.004-.056.077 0 .083.408.035.777.164 1.102.404.007.004.01.01.016.014a1.145 1.145 0 0 0-.377-.055c-.163 0-.343.037-.484.118-.028.017-.01.062.022.052.078-.02.154-.044.234-.056a1.408 1.408 0 0 1 .452.004c.081.013.157.04.237.054a.039.039 0 0 0 .037-.015c.258.226.462.5.626.796l.01.02a20.82 20.82 0 0 0-.271.59c-.8 1.832-1.454 3.721-2.055 5.63-.602 1.907-1.168 3.833-1.824 5.735a49.266 49.266 0 0 1-2.344 5.657c-.892 1.822-1.89 3.595-2.928 5.343-.522.88-1.065 1.747-1.605 2.615M61.734 40.964c.162-.028.321-.06.482-.095l.3 1.024c.102.348.2.693.302 1.04.045.152.125.344-.005.475a.606.606 0 0 1-.278.134c-.175-.558-.347-1.116-.52-1.674-.092-.295-.184-.59-.273-.884-.003-.005-.004-.013-.008-.02m-2.408.22a13.283 13.283 0 0 0 2.27-.194l.03.102a252.036 252.036 0 0 1 .788 2.56c.014.038.053.06.092.05.248-.056.537-.17.537-.468 0-.178-.08-.36-.131-.525l-.171-.577-.387-1.296a13.57 13.57 0 0 0 2.585-.87c.57-.26 1.123-.562 1.65-.9a35.483 35.483 0 0 1 3.307 5.46 35.935 35.935 0 0 1 2.92 8.558c.304 1.482.515 2.98.626 4.488.004.05.057.088.106.06a39.06 39.06 0 0 1 2.733-1.46 39.71 39.71 0 0 1 5.145-2.06c.844-.27 1.697-.516 2.556-.734a.936.936 0 0 0-.043-.09 38.057 38.057 0 0 0-5.522 1.786 39.626 39.626 0 0 0-4.844 2.38l-.035-.45a34.772 34.772 0 0 0-.688-4.496 36.114 36.114 0 0 0-3.058-8.554 35.936 35.936 0 0 0-3.063-4.978c.456-.302.895-.632 1.31-.99-.031-.024-.058-.05-.085-.074-.4.336-.82.648-1.256.934l-.048.027a35.058 35.058 0 0 0-.536-.709l-.168.053c.139.174.275.351.41.53.053.07.103.141.156.213a13.45 13.45 0 0 1-4.146 1.725l-.055.012c-.09-.298-.18-.6-.275-.895-.023-.074-.136-.043-.115.031.081.299.168.595.253.891-.16.036-.321.068-.484.096-.066-.22-.134-.446-.228-.656-.023-.054-.097-.013-.088.038.04.214.106.429.175.642-.512.084-1.03.14-1.548.164-.217.01-.433.01-.647.007-.008.055-.018.112-.028.17" fill="#000"/>
            <path d="M84.613 54.9a13.645 13.645 0 0 0-.683-1.634c-.17-.339-.356-.667-.558-.986l3.332-1.073 1.412 2.388s-1.375.788-3.333 1.866a5.21 5.21 0 0 0-.17-.562M52.442 73.277c.458.273.906.562 1.36.845.249.155.496.306.733.475a138.283 138.283 0 0 1-2.279 3.175l-2.498-1.474s.756-1.404 1.79-3.535c.3.169.6.339.894.514" fill="#FF9F7C"/>
            <path d="M85.228 55.544c.143-.129-1.306-3.373-1.623-3.453-.319-.08-1.549.289-1.475.493.074.205 1.524 3.475 1.755 3.552.231.077 1.151-.418 1.343-.592M55.555 73.886c.104-.313-3.447-2.448-3.806-2.229-.36.22-.908 1.298-.817 1.462.091.165 3.369 2.178 3.603 2.149.234-.03.91-1.053 1.02-1.382" fill="#000"/>
            <path d="M46.376 75.62c-.25.515 4.617 3.469 4.976 3.59.103.033.248-.053.396-.215.088-.095.176-.218.258-.36.25-.434.363-.66.669-1.366.13-.304-.694-.037-1.352-.327-.6-.263-1.011-1.091-1.468-1.193-.887-.196-2.94-.558-3.4-.223a.24.24 0 0 0-.08.095" fill="#876DE8"/>
            <path d="M46.376 75.62c-.25.515 4.617 3.469 4.976 3.59.103.033.248-.053.396-.215-.099-.055-.204-.106-.304-.16a66.695 66.695 0 0 1-.808-.45 29.24 29.24 0 0 1-4.18-2.859.24.24 0 0 0-.08.095" fill="#000124"/>
            <path d="M90.605 55.915c.477-.315-2.212-5.334-2.458-5.62-.072-.082-.24-.082-.451-.018-.123.038-.261.099-.404.179-.436.246-.649.383-1.27.836-.269.196.577.386.997.97.383.532.315 1.453.657 1.772.664.621 2.247 1.977 2.813 1.922a.238.238 0 0 0 .116-.04" fill="#876DE8"/>
            <path d="M90.605 55.915c.477-.315-2.212-5.334-2.458-5.62-.072-.082-.24-.082-.451-.018.058.097.122.196.18.293.159.265.313.53.467.798a29.375 29.375 0 0 1 2.069 4.377c.027.069.051.139.077.21a.238.238 0 0 0 .116-.04" fill="#000124"/>
            <path d="M64.282 26.878c-.168-.059-5.942-5.481-8.216-9.115-2.64-4.218-4.106-6.177-4.565-7.127-.46-.949-2.737-.075-2.607.996.13 1.073.242 5.514 3.294 10.317 2.482 3.906 8.43 8.878 8.43 8.878l3.664-3.95z" fill="#E790BD"/>
            <path d="M50.308 16.964c1.024 1.859 2.282 3.576 3.532 5.284 1.21 1.655 2.404 3.318 3.736 4.877a29.673 29.673 0 0 0 2.124 2.259c.397.378.807.753 1.237 1.099l-.319.345s-5.948-4.973-8.43-8.88a20.99 20.99 0 0 1-2.84-7.002c.28.686.598 1.36.96 2.018" fill="#E790BD"/>
            <path d="M47.749 9.489a60.451 60.451 0 0 0-1.859-2.21c-.503-.567-.415-.794.132-.485.486.275.873.636.955.572.04-.031-.263-.327-.686-.753-.433-.439-.716-.782-.568-.99.148-.21 1.407.854 1.715 1.191.308.338-.748-1.101-1.114-1.589-.41-.545-.117-.797.524-.195.64.604 1.098 1.234 1.305 1.347-.034-.199-.136-.416-.63-1.225-.365-.599-.068-.747.427-.233.596.618 1.15 1.77 1.426 1.728.174-.123.008-.409.108-1.158.1-.748.434.152.602.903.172.778.56 1.589.675 2.233.153.87.093 1.505-.543 1.876-.638.372-1.31.452-2.47-1.012" fill="#FF9F7C"/>
            <path d="M49.18 7.483a.175.175 0 0 0-.032.07c-.006.032-.018.059-.02.09a1.824 1.824 0 0 0-.004.176c.002.116.012.233.026.348.013.114.03.228.054.34.024.111.045.238.1.338.039.07.133.039.13-.04-.003-.11-.037-.22-.054-.328a6 6 0 0 1-.05-.34 5.74 5.74 0 0 1-.024-.334 3.941 3.941 0 0 0-.01-.166c-.001-.03-.012-.053-.016-.08a.17.17 0 0 0-.03-.076c-.018-.024-.054-.019-.07.002" fill="#BA4A60"/>
            <path d="M48.23 10.38c.009-.003 2.656-1.106 2.834-1.094.177.012.814 1.341.682 1.45-.132.11-2.82 1.252-3.006 1.216-.187-.035-.659-1.509-.51-1.571" fill="#E7638B"/>
            <path d="M64.676 22.401c.176-.028 6.82-4.34 9.702-7.514 3.346-3.684 5.136-5.352 5.756-6.204.62-.853 2.707.41 2.39 1.442-.32 1.032-1.217 5.383-5.072 9.569-3.135 3.405-9.87 7.244-9.87 7.244L64.676 22.4z" fill="#E790BD"/>
            <path d="M72.469 23.065c2.919-2.305 5.803-4.728 8.06-7.706a20.942 20.942 0 0 1-3.077 4.335c-3.135 3.405-9.87 7.244-9.87 7.244l-.045-.069c1.643-1.27 3.302-2.517 4.932-3.804" fill="#E790BD"/>
            <path d="M84.03 8.219a59.986 59.986 0 0 1 2.221-1.846c.596-.47.55-.708-.044-.5-.526.184-.971.47-1.04.394-.034-.038.316-.275.808-.62.505-.355.843-.644.735-.875-.11-.231-1.536.593-1.9.87-.363.277.932-.952 1.379-1.367.5-.464.256-.764-.481-.285-.738.48-1.3 1.02-1.524 1.095.069-.19.208-.386.837-1.094.465-.525.199-.722-.38-.306-.695.503-1.445 1.538-1.708 1.448-.15-.152.064-.404.098-1.16.034-.752-.454.074-.751.783-.308.736-.834 1.465-1.06 2.079-.306.829-.36 1.464.2 1.942.562.48 1.209.677 2.61-.558" fill="#FF9F7C"/>
            <path d="M82.978 5.99a.155.155 0 0 1 .017.076c.002.031.009.06.006.092a1.6 1.6 0 0 1-.028.174 3.88 3.88 0 0 1-.2.662c-.044.106-.087.226-.16.315-.05.063-.137.015-.121-.062.023-.107.076-.21.114-.314a6.47 6.47 0 0 0 .108-.325c.032-.107.058-.216.083-.324.012-.055.024-.11.038-.163.007-.027.023-.049.031-.076a.184.184 0 0 1 .043-.07c.021-.02.055-.008.069.016" fill="#BA4A60"/>
            <path d="M83.398 9.01c-.007-.004-2.417-1.559-2.594-1.579-.177-.019-1.039 1.176-.928 1.307.11.13 2.553 1.73 2.743 1.73.19-.003.915-1.37.779-1.458" fill="#E7638B"/>
            <path d="M59.713 23.808c.268-.09.694-.17 1.193-.254.026-.004.054-.008.082-.014 1.072-.18 2.018-.628 3.04-1.016 1.068-.405 2.198-1.14 3.176-.338 1.688 1.384 1.328 4.483 1.268 6.415a52.843 52.843 0 0 0 .042 4.545c.082 1.46.446 2.6.488 3.02.122 1.227-3.43 2.586-7.243 3.912-1.595.555-3.173-.04-3.584-.323-.411-.283-.443-2.132-.793-3.085-.386-1.047-1.586-4.954-1.333-6.986.254-2.032 2.406-5.447 3.664-5.876" fill="#E790BD"/>
            <path d="M56.05 29.684c.015-.127.04-.262.071-.399.011.401.051.801.12 1.198.227 1.312.764 2.527 1.22 3.768.23.623.438 1.257.56 1.91.102.54.127 1.092.255 1.628.126.53.37 1.043.777 1.414.351.32.789.534 1.237.68.468.151 1.03.232 1.555.165l-.086.03c-1.595.555-3.173-.04-3.583-.323-.412-.283-.444-2.132-.794-3.085-.386-1.047-1.586-4.954-1.333-6.986" fill="#E790BD"/>
            <path d="M61.198 24.235c.087.496 1.235.36 1.907-.041 1.137-.679 1.24-1.205 1.24-1.205l-.84-2.495-2.915 1.077.608 2.664z" fill="#FF9F7C"/>
        </g>
        <g transform="translate(60 20.212)">
            <mask id="l" fill="#fff">
                <use xlink:href="#k"/>
            </mask>
            <path d="M2.875 1.844a3.147 3.147 0 0 1-1.306.545c-.286.05-.589.063-.838-.052-.453-.209-.585-.802-.384-1.274.202-.47.66-.821 1.143-1.04a3.638 3.638 0 0 1 1.288-.321c.304-.018.922-.066 1.096.212.341.547-.553 1.605-.999 1.93" fill="#D53140" mask="url(#l)"/>
        </g>
        <g>
            <path d="M64.896 22.761c.005-.247-.593-1.035-.856-.867-.084.054.006.134-.062.343-.1.308-.389.737-1.503 1.089-1.405.444-1.462-.275-1.665-.034-.204.243-.249 1.128.134 1.336.303.164 1.484.388 2.49-.1 1.006-.488 1.449-1.099 1.462-1.767" fill="#E7638B"/>
            <path d="M67.7 26.816c.17-.172.353-.328.548-.467l.022-.034c.013-.018.032-.018.048-.014.166-.112.337-.217.518-.307.044-.022.084.043.04.067a4.556 4.556 0 0 0-.59.385 4.895 4.895 0 0 0-.22.409c-.082.175-.151.353-.223.531-.018.044-.083.029-.072-.02.04-.187.113-.374.197-.546a3.85 3.85 0 0 1 .11-.204 4.549 4.549 0 0 0-.736.794c-.134.183-.246.375-.366.566-.016.025-.062.01-.05-.021.163-.424.458-.818.774-1.14M58.162 33.464c.696-.083 1.424.03 2.097.2.343.088.676.207 1.003.344.32.135.645.288.934.484.046.03.006.1-.044.075-.32-.159-.632-.322-.964-.453a8.044 8.044 0 0 0-.968-.306c-.678-.175-1.362-.218-2.058-.262-.053-.003-.052-.076 0-.082M56.9 26.68c-.058-.194-.116-.387-.17-.582-.055-.194-.127-.39-.156-.588-.008-.047.052-.064.07-.02.078.184.12.39.174.583.054.194.106.39.158.585.024-.087.05-.172.07-.26.035-.15.064-.3.088-.452.023-.15.03-.304.06-.454.008-.05.081-.035.084.011.004.146-.02.295-.042.438a5.483 5.483 0 0 1-.38 1.357c-.02.052-.106.03-.085-.024.076-.188.139-.383.195-.579-.02.019-.056.019-.066-.014" fill="#000"/>
            <path d="M63.04 8.459c.582-.687 1.28-1.313 2.131-1.603.416-.141.861-.198 1.3-.167.574.042 1.173.263 1.495.741.233.346.253.84.055 1.189.53-.445 1.244-.666 1.942-.729.872-.08 1.777.05 2.548.465.412.221.81.571.865 1.037.032.27-.061.548-.215.774-.27.4-.711.656-1.173.792-.462.136-.948.162-1.43.183.697.426 1.36.906 1.981 1.435.276.234.562.518.578.879.013.284-.156.553-.385.721-.228.168-.51.25-.79.296-1.095.186-2.179-.092-3.172-.545-.966-.442-1.83-.934-2.836-1.296-1.107-.399-2.241-1.022-3.05-1.888-.188-.201-.364-.427-.434-.694-.151-.57.21-1.14.59-1.59" fill="#B65638"/>
            <path d="M62.832 10.506c1.524-.287 3.05.085 4.324.95a8.034 8.034 0 0 1 1.447 1.236c.362.4.672.868.702 1.413a.14.14 0 0 0-.036.028 8.5 8.5 0 0 1-.5-.207c-.965-.44-1.828-.933-2.835-1.296-1.106-.398-2.24-1.021-3.05-1.887a2.983 2.983 0 0 1-.177-.21c.042-.008.083-.019.125-.027" fill="#B65638"/>
            <path d="M66.779 19.159c.939-.394 1.59-1.138 1.871-1.94.282-.803.22-1.66-.018-2.471a4.671 4.671 0 0 0-.872-1.692 4.059 4.059 0 0 0-1.722-1.21c-.585-.214-1.344-.278-1.826.058-.399.279-.477.739-.492 1.158-.039 1.158.216 2.326-.024 3.47-.154.735-.62 1.583-.286 2.325.234.523 1.213.61 1.818.607a4.089 4.089 0 0 0 1.55-.305" fill="#B65638"/>
            <path d="M57.132 16.877a19.864 19.864 0 0 0 .043 1.56c.09 1.165.354 2.162 1.047 2.82.032.033.065.062.1.092.597.511 1.486.788 2.802.74.09-.001.18-.007.274-.014.04-.001.083-.005.126-.009 1.597-.128 2.961-1.094 3.77-2.496.12-.208.229-.426.322-.653a6.062 6.062 0 0 0 .452-2.638c-.144-2.98-2.373-5.24-4.983-5.073-2.611.164-3.93 2.282-3.953 5.67" fill="#FF9F7C"/>
            <path d="M60.827 17.215a.722.722 0 0 1 .65-.566.938.938 0 0 1 .91.517 1.34 1.34 0 0 1 .051-.02c.007-.004.029-.014.005-.002l.017-.009c.015-.006.028-.014.04-.022l.017-.01a.09.09 0 0 1 .02-.01l.007-.003.003-.001.011-.007.01-.008.003-.002a.319.319 0 0 0 .024-.022c.009-.008.017-.017.027-.022.011-.006.022-.009.034-.013.04-.014.087.023.084.064 0 .012 0 .026-.004.037a.113.113 0 0 1-.022.04.835.835 0 0 1-.035.042l-.016.016-.01.008c-.003.004-.01.013-.004.002l.003-.004a.188.188 0 0 1-.016.02.16.16 0 0 1-.022.018l-.02.013a.533.533 0 0 1-.105.042.302.302 0 0 1-.061.01.063.063 0 0 1-.107.009c-.103-.131-.193-.264-.334-.366a.715.715 0 0 0-.485-.135.492.492 0 0 0-.386.24.81.81 0 0 0-.088.22c-.017.07-.02.175-.079.227a.085.085 0 0 1-.125-.012c-.056-.07-.017-.212.003-.29M57.477 17.134c.007 0 .015.002.021.006l.013.01c-.006-.004-.003-.002 0 0a.295.295 0 0 1 .02.014l.005.001c.01.003.02.009.028.017l.004.001.005.005.013.009.027.018-.006-.002a.16.16 0 0 1 .02.008.441.441 0 0 0 .065.04c.008.004.014.011.021.015.065-.293.32-.527.616-.507a.59.59 0 0 1 .43.242c.053.07.095.152.125.236.024.068.07.196.038.259-.018.034-.058.045-.092.014-.05-.043-.066-.137-.087-.197a.876.876 0 0 0-.092-.194.417.417 0 0 0-.318-.198.44.44 0 0 0-.344.138c-.093.096-.143.217-.203.338-.02.039-.068.025-.082-.012l-.004.001c-.01 0-.024-.003-.035-.005a.173.173 0 0 1-.039-.013l-.049-.023-.017-.008c.004.002-.02-.013-.02-.018a.044.044 0 0 0 .007.006l-.015-.012a.224.224 0 0 1-.03-.026c-.013-.011-.03-.024-.038-.04a.047.047 0 0 1-.006-.017s0 .001 0 0c-.005-.005-.008-.011-.011-.017l-.011-.018a.072.072 0 0 1-.008-.034c.001-.027.025-.042.05-.037" fill="#000"/>
            <path d="M61.348 18.455c-.424-.117-.721.194-1.45.311-.727.117-1.215-.02-1.295.135-.187.36.573 1.12 1.61 1.037 1.036-.084 1.56-1.366 1.135-1.483" fill="#FFF"/>
            <path d="M60.243 14.622c.232-.298.658-.333.975-.264.176.04.344.123.497.224.082.055.16.11.235.175.079.067.141.147.208.228.044.052-.001.165-.07.132a7.3 7.3 0 0 1-.446-.228 1.623 1.623 0 0 0-.448-.168.905.905 0 0 0-.385.004c-.14.03-.251.104-.374.184-.168.112-.31-.134-.192-.287M59.054 14.861c-.165-.253-.482-.283-.722-.224a1.112 1.112 0 0 0-.38.19 1.959 1.959 0 0 0-.181.148c-.062.057-.11.124-.163.193-.034.044-.003.14.05.112.115-.061.227-.124.34-.193a1.17 1.17 0 0 1 .341-.143.594.594 0 0 1 .288.003.776.776 0 0 1 .275.157c.122.094.236-.114.152-.243" fill="#681E04"/>
            <path d="M58.324 17.44c.077-.074.185-.042.276-.02.105.022.21.062.317.074.03.004.066.008.086-.02.023-.03.014-.094.015-.13.003-.122.003-.245.001-.366-.002-.115.002-.241.022-.354.013-.072.11-.056.132 0 .038.102.057.23.064.338.008.117.01.234.008.352 0 .09 0 .192-.048.275a.275.275 0 0 1-.232.13c-.092.003-.187-.03-.276-.052a6.034 6.034 0 0 1-.162-.043c-.003-.002-.01-.002-.016-.003.025.033.045.082.065.113l.085.134c.063.095.124.192.188.288.044.068-.06.15-.114.088a4.857 4.857 0 0 1-.406-.549c-.052-.08-.086-.178-.005-.256" fill="#D53140"/>
            <path d="M56.551 14.456c.02.53.154 1.144.489 1.568a.058.058 0 0 0 .066.018c.007.006.008.013.012.017a.17.17 0 0 0 .079.056c.138.032.121-.259.12-.331-.002-.12-.006-.243-.002-.363.002-.081.01-.162.018-.243-.03.355.267.726.57.842.29.11.102-.37.091-.51a1.684 1.684 0 0 1 .04-.456c.059-.256.15-.51.261-.75-.014.152-.016.305.002.458.024.204.076.392.154.58.042.107.26.584.422.422.178-.179-.079-.868-.08-1.11a2.483 2.483 0 0 1 .576-1.65c.09-.113.19-.21.293-.31.035-.03.072-.06.11-.09a1.898 1.898 0 0 0-.12.887c.095.832.63 1.505 1.291 1.926.06.038.13-.058.076-.105-.538-.458-1.034-1.022-1.126-1.777a1.884 1.884 0 0 1-.008-.329c.016.064.036.128.06.193.172.437.456.78.78 1.084.22.205.423.431.672.601.066.047.78.367.72.136-.01-.038-.041-.066-.07-.09-.352-.31-.598-.727-.831-1.138-.232-.408-.44-.912-.27-1.372.011.387.2.73.4 1.039.357.551.778 1.169 1.331 1.52.488.306 1.095.402 1.542.78.177.148.323.348.383.58.058.221.026.46.118.676.097.223.349.351.57.22.095-.058.134-.174.2-.263a1.55 1.55 0 0 1 .088-.107c.351-.365.65-.02.905.248.202.215.468.46.75.185.08-.08.136-.18.185-.28.458-.905.998-2.023.837-3-.282-1.717-1.917-3.089-3.462-3.686a4.843 4.843 0 0 0-1.39-.31h-.002a5.114 5.114 0 0 0-1.624.133 2.969 2.969 0 0 0-.956.385 2.003 2.003 0 0 0-.283.234 3.475 3.475 0 0 0-1.197.006 3.256 3.256 0 0 0-.913.312 3.321 3.321 0 0 0-.883.645 3.355 3.355 0 0 0-.994 2.52" fill="#B65638"/>
            <path d="M65.222 18.146c.138.51.887.725 1.519.3.632-.426 1.139-1.775.718-2.54-.42-.764-1.516-.48-1.967.388-.341.654-.377 1.454-.27 1.852" fill="#FFC9C9"/>
            <path d="M65.222 18.146c.138.51.887.725 1.519.3.632-.426 1.139-1.775.718-2.54-.42-.764-1.516-.48-1.967.388-.341.654-.377 1.454-.27 1.852" fill="#FFC9C9"/>
            <path d="M65.222 18.146c.138.51.887.725 1.519.3.632-.426 1.139-1.775.718-2.54-.42-.764-1.516-.48-1.967.388-.341.654-.377 1.454-.27 1.852" fill="#FF9F7C"/>
            <path d="M67.008 16.289c.026-.024.017-.074-.016-.084-.143-.045-.309.046-.434.12-.136.08-.264.184-.37.308a1.507 1.507 0 0 0-.378.927c-.002.064.09.086.106.02.074-.303.19-.59.394-.818.028-.031.058-.057.088-.085.01.016.023.03.034.046l.06.08c.038.056.072.115.102.177.064.125.099.263.17.383.014.022.054.026.06-.006.03-.16-.029-.316-.098-.452a1.36 1.36 0 0 0-.195-.281l-.036-.034c.047-.037.093-.072.143-.101.118-.07.27-.103.37-.2" fill="#FF4640"/>
            <path d="M57.545 11.937c.01.018.019.034.024.052.025.068.01.142.028.21.032.13.167.216.301.23.134.014.266-.031.394-.077.192-.072.38-.153.567-.242.216-.105.48-.223.683-.09.118.077.182.226.313.284.173.076.363-.046.521-.147.16-.102.387-.184.523-.054.042.043.069.1.117.136.08.06.194.043.282-.004.089-.046.16-.117.249-.166.222-.122.505-.076.728.049.222.121.398.31.585.485.074.07.176.142.27.1.066-.028.098-.104.109-.175.044-.26-.088-.537.01-.779.082-.202.3-.315.515-.35.215-.033.433-.005.65-.015a.405.405 0 0 0 .236-.069c.106-.082.118-.246.06-.368-.058-.121-.168-.207-.28-.284-.347-.172-.674-.334-1.026-.44H63.4a5.117 5.117 0 0 0-1.624.132c.02.076.155.136.193.197.054.084.01.202-.066.264a.665.665 0 0 1-.277.103c-.265.052-.545.116-.738.304-.106.102-.184.24-.318.303-.16.074-.349.014-.503-.068-.157-.083-.305-.19-.478-.223-.225-.038-.449.06-.643.179-.087.052-.181.112-.281.094-.108-.021-.169-.124-.238-.217a3.352 3.352 0 0 0-.883.646" fill="#B65638"/>
            <path d="M27.498 47.183c-.003 0-.003-.005 0-.005"/>
        </g>
    </g>
</svg>
