<svg width="32" height="32" viewBox="0 0 32 32" xmlns="http://www.w3.org/2000/svg">
    <g fill="none" fill-rule="evenodd">
        <path d="M26 32H6a6 6 0 0 1-6-6V6a6 6 0 0 1 6-6h20a6 6 0 0 1 6 6v20a6 6 0 0 1-6 6z" fill="#CCEBFF" fill-rule="nonzero"/>
        <path d="M4 4h24v24H4z"/>
        <path d="M23.75 15.236 22 13.516v-4.35a.5.5 0 0 0-.5-.5h-2.333a.5.5 0 0 0-.5.5v1.112l-2.328-2.146a.5.5 0 0 0-.685.007l-7.408 7.1a.834.834 0 0 0 .587 1.426H10V23a1 1 0 0 0 1 1h2.833a.5.5 0 0 0 .5-.5V19c0-.092.075-.167.167-.167h3c.092 0 .167.075.167.167v4.5a.5.5 0 0 0 .5.5H21a1 1 0 0 0 1-1v-6.333h1.167a.834.834 0 0 0 .583-1.43z" fill="#0999F7" fill-rule="nonzero"/>
    </g>
</svg>
