<svg width="32" height="32" viewBox="0 0 32 32" xmlns="http://www.w3.org/2000/svg">
    <g fill="none" fill-rule="evenodd">
        <path d="M26 32H6a6 6 0 0 1-6-6V6a6 6 0 0 1 6-6h20a6 6 0 0 1 6 6v20a6 6 0 0 1-6 6z" fill="#E9E1FF" fill-rule="nonzero"/>
        <path d="M4 4h24v24H4z"/>
        <path d="M4 4h24v24H4z"/>
        <path d="M15.99 6C10.47 6 6 10.47 6 16s4.47 10 9.99 10C21.51 26 26 21.53 26 16S21.52 6 15.99 6zm-4.7 7.41.89-.88a.996.996 0 0 1 1.41 0l.88.88c.29.29.29.77 0 1.06-.29.29-.77.29-1.06 0l-.53-.53-.53.53c-.29.29-.77.29-1.06 0a.754.754 0 0 1 0-1.06zm9.46 5.34A5.489 5.489 0 0 1 16 21.5c-2.03 0-3.8-1.11-4.75-2.75-.19-.33.06-.75.44-.75h8.62c.39 0 .63.42.44.75zm-.04-4.28c-.29.29-.77.29-1.06 0l-.53-.53-.53.53c-.29.29-.77.29-1.06 0a.746.746 0 0 1 .01-1.06l.88-.88a.996.996 0 0 1 1.41 0l.88.88c.29.29.29.77 0 1.06z" fill="#966DFE" fill-rule="nonzero"/>
    </g>
</svg>
