<svg width="32" height="32" viewBox="0 0 32 32" xmlns="http://www.w3.org/2000/svg">
    <g fill="none" fill-rule="evenodd">
        <path d="M26 32H6a6 6 0 0 1-6-6V6a6 6 0 0 1 6-6h20a6 6 0 0 1 6 6v20a6 6 0 0 1-6 6z" fill="#CCEBFF" fill-rule="nonzero"/>
        <path d="M4 4h24v24H4z"/>
        <path d="M24 16c0-.76.43-1.42 1.06-1.76.6-.33.94-1.01.94-1.7V10c0-1.1-.9-2-2-2H8c-1.1 0-1.99.89-1.99 1.99v2.55c0 .69.33 1.37.94 1.69A2.02 2.02 0 0 1 8 16c0 .76-.43 1.43-1.06 1.76-.6.33-.94 1.01-.94 1.7V22c0 1.1.9 2 2 2h16c1.1 0 2-.9 2-2v-2.54c0-.69-.34-1.37-.94-1.7-.63-.34-1.06-1-1.06-1.76zm-5.5 4.1L16 18.5l-2.5 1.61c-.38.24-.87-.11-.75-.55l.75-2.88-2.3-1.88a.503.503 0 0 1 .29-.89l2.96-.17 1.08-2.75c.17-.42.77-.42.93 0l1.08 2.76 2.96.17c.45.03.64.6.29.89l-2.3 1.88.76 2.86c.12.45-.37.8-.75.55z" fill="#0999F7" fill-rule="nonzero"/>
    </g>
</svg>
