<svg width="32" height="32" viewBox="0 0 32 32" xmlns="http://www.w3.org/2000/svg">
    <g fill="none" fill-rule="evenodd">
        <path d="M26 32H6a6 6 0 0 1-6-6V6a6 6 0 0 1 6-6h20a6 6 0 0 1 6 6v20a6 6 0 0 1-6 6z" fill="#FEE1EB" fill-rule="nonzero"/>
        <path d="M4 4h24v24H4z"/>
        <path d="M26 18.6c0-.37-.2-.72-.52-.9L17.5 13V7.58c0-.81-.61-1.54-1.42-1.58-.87-.04-1.58.64-1.58 1.5V13l-7.98 4.7c-.32.18-.52.53-.52.9 0 .7.67 1.2 1.34 1.01l7.16-2.1V23l-1.67 1.25c-.21.16-.33.4-.33.66 0 .55.52.94 1.05.79L16 25l2.45.7a.824.824 0 0 0 .72-1.45L17.5 23v-5.5l7.16 2.1c.67.2 1.34-.3 1.34-1z" fill="#FB6C9C" fill-rule="nonzero"/>
    </g>
</svg>
