<svg width="32" height="32" viewBox="0 0 32 32" xmlns="http://www.w3.org/2000/svg">
    <g fill="none" fill-rule="evenodd">
        <path d="M26 32H6a6 6 0 0 1-6-6V6a6 6 0 0 1 6-6h20a6 6 0 0 1 6 6v20a6 6 0 0 1-6 6z" fill="#FFEFCC" fill-rule="nonzero"/>
        <path d="M4 4h24v24H4z"/>
        <path d="M22.92 10.01C22.72 9.42 22.16 9 21.5 9h-11c-.66 0-1.21.42-1.42 1.01L7 16v7.5c0 .83.67 1.5 1.5 1.5s1.5-.67 1.5-1.5V23h12v.5c0 .82.67 1.5 1.5 1.5.82 0 1.5-.67 1.5-1.5V16l-2.08-5.99zM11.5 20c-.83 0-1.5-.67-1.5-1.5s.67-1.5 1.5-1.5 1.5.67 1.5 1.5-.67 1.5-1.5 1.5zm9 0c-.83 0-1.5-.67-1.5-1.5s.67-1.5 1.5-1.5 1.5.67 1.5 1.5-.67 1.5-1.5 1.5zM9.81 14l1.04-3h10.29l1.04 3H9.81z" fill="#FFAE00" fill-rule="nonzero"/>
    </g>
</svg>
