<svg width="21" height="16" viewBox="0 0 21 16" xmlns="http://www.w3.org/2000/svg">
    <g fill="none" fill-rule="evenodd" opacity=".481">
        <path d="M-1.093-4h23.888v24H-1.093z"/>
        <g fill="#201E45" fill-rule="nonzero">
            <path d="M14.833 2 14.48.505A.639.639 0 0 0 13.869 0H7.834c-.29 0-.54.209-.611.505L6.87 2h7.963zM18.814 3H2.888c-1.097 0-1.99.875-1.99 1.95v9.1c0 1.075.893 1.95 1.99 1.95h15.926c1.097 0 1.99-.875 1.99-1.95v-9.1c0-1.075-.893-1.95-1.99-1.95zM4.381 6a.499.499 0 0 1-.497-.5.499.499 0 1 1 .995 0c0 .276-.222.5-.498.5zm6.968 8c-2.47 0-4.48-2.019-4.48-4.5S8.88 5 11.35 5c2.47 0 4.479 2.019 4.479 4.5s-2.01 4.5-4.48 4.5z"/>
            <path d="M11.349 6C9.428 6 7.865 7.57 7.865 9.5S9.428 13 11.35 13c1.92 0 3.484-1.57 3.484-3.5S13.27 6 11.349 6zm1.891 4a.598.598 0 0 1-.597-.6c0-.662-.536-1.2-1.195-1.2a.598.598 0 0 1-.597-.6c0-.331.267-.6.597-.6a2.397 2.397 0 0 1 2.39 2.4c0 .331-.268.6-.598.6z"/>
        </g>
    </g>
</svg>
